<svg width="24" height="27" viewBox="30 20 24 27" xmlns="http://www.w3.org/2000/svg"><path d="M32.29 20.812c4.973 2.842 9.945 5.686 14.92 8.522.23.13.225.203.05.38-1.113 1.116-2.217 2.242-3.32 3.367-.12.123-.19.193-.35.027-3.957-4.115-7.92-8.225-11.88-12.336-.034-.033-.06-.074-.128-.16.297 0 .506.087.708.202zm-1.53 25.062c-.417-.326-.576-.763-.576-1.284 0-2.193-.003-4.387-.004-6.58v-4.652h.006c0-3.704 0-7.407-.002-11.11 0-.455.087-.87.402-1.214.123-.133.21-.17.362-.012 2.443 2.542 4.892 5.08 7.34 7.617 1.586 1.642 3.17 3.286 4.763 4.922.156.16.17.243.006.408-3.895 3.95-7.785 7.903-11.666 11.866-.237.242-.403.216-.63.038zm16.016-8.046c-4.634 2.587-9.263 5.182-13.894 7.775-.077.042-.148.113-.187.14 3.61-3.723 7.22-7.442 10.823-11.17.223-.233.327-.202.528.01.914.972 1.843 1.93 2.775 2.885.165.167.18.236-.044.36zm6.04-3.437c-.217.163-.456.297-.692.43-1.4.79-2.806 1.573-4.204 2.368-.188.107-.3.103-.457-.062-.995-1.05-2-2.09-3.008-3.123-.147-.15-.15-.232 0-.384 1.176-1.183 2.345-2.37 3.51-3.565.137-.14.236-.157.407-.058 1.384.8 2.774 1.59 4.162 2.382.43.245.763.562.782 1.08-.016.418-.21.71-.5.93z" fill-rule="evenodd"/></svg>
