<svg width="101" height="100" viewBox="669 57 101 100" xmlns="http://www.w3.org/2000/svg"><g fill="none" fill-rule="evenodd"><path d="M768.638 115.91l.3-2.367-4.427-.564.65-5.12 4.427.564.3-2.366-11.547-1.47-.3 2.365 4.986.636-.65 5.117-4.986-.634-.3 2.367 11.548 1.47zm.366-20.642l-2.69-9.485-2.068.588 1.017 3.59-9.128 2.595.65 2.295 9.128-2.596 1.02 3.603 2.07-.59zm-7.64-18.275l-1.38-1.945-9.487 6.76 1.38 1.944 9.486-6.76zm-10.88-12.24l-5.667 4.665.88-7.667-.687-.395-6.17 4.618 1.17-7.254-2.292-1.322-1.872 12.62.673.388 6.46-4.697-.82 7.947.674.387 9.944-7.97-2.293-1.32zM701.8 58.068l-6.97 3.577 5.308 10.38 7.157-3.673-.98-1.918-5.04 2.586-1.342-2.627 3.563-1.827-.925-1.81-3.562 1.83-1.077-2.108 4.85-2.49-.98-1.918zm-18.428 16.276c1.536-1.777 3.578-2.087 5.31-.582 1.693 1.47 1.772 3.62.236 5.396l-.924 1.068-5.545-4.813.922-1.067zm-1.615-1.426l-2.494 2.886 8.8 7.636 2.493-2.886c2.448-2.833 2.33-6.394-.27-8.65-2.638-2.29-6.08-1.818-8.528 1.013zm-1.204 18.88l-.837 2.958-3.348-2.55 4.185-.408zm3.753-.494l.698-2.465-12.817 1.754-.217.765 9.98 8.258.7-2.465-1.282-1.043 1.3-4.59 1.638-.214zm-14.17 17.37l7.08 3.742-5.35 5.966.137.766 11.668-2.087-.418-2.35-6.13 1.096 3.115-3.537-.136-.767-4.143-2.238 6.13-1.096-.42-2.35L670 107.907l.136.767zM745.338 135.506l-6.575 4.264 6.324 9.79 6.752-4.376-1.17-1.81-4.753 3.082-1.6-2.478 3.362-2.18-1.103-1.706-3.362 2.18-1.283-1.988 4.575-2.967-1.17-1.81zm-15.58 7.69l-1.653 7.457-4.064-6.472-2.658.46 7.136 10.82.783-.135 3.1-12.585-2.64.456zm-20.322 1.717c2.046.607 3.134 2.59 2.497 4.742-.643 2.168-2.628 3.22-4.674 2.61-2.08-.618-3.14-2.573-2.497-4.74.637-2.154 2.593-3.23 4.673-2.612zm.61-2.123c-3.28-.975-6.66.75-7.634 4.036-.973 3.285.923 6.578 4.203 7.553 3.28.972 6.695-.74 7.668-4.027.973-3.286-.957-6.588-4.237-7.563zm-15.824-8.014l-1.893-1.447-7.062 9.27 5.946 4.546 1.305-1.713-4.054-3.098 5.756-7.56z" fill="#254C73"/><path d="M708.316 85.518c5.324 0 9.934 3.06 12.177 7.518 1.516-3.01 4.11-5.383 7.275-6.606l6.678 11.03 10.944 6.626c-.58 1.506-1.42 2.883-2.462 4.077l-.008.008c-.5.575-1.05 1.106-1.64 1.59l-20.787 20.1-20.785-20.102c-.59-.482-1.14-1.014-1.643-1.59l-.007-.005c-2.097-2.4-3.37-5.547-3.37-8.99 0-7.54 6.102-13.655 13.628-13.655" fill="#006FFF"/><path d="M740.486 104.998c-7.526 0-13.628-6.113-13.628-13.655 0-1.732.323-3.388.91-4.913l17.62 17.656c-1.52.59-3.174.912-4.902.912" fill="#92C2FF"/></g></svg>