<svg width="26" height="29" viewBox="30 15 26 29" xmlns="http://www.w3.org/2000/svg"><path d="M54.77 37.51c-.434 1.01-.95 1.938-1.548 2.792-.815 1.165-1.483 1.97-1.997 2.418-.797.735-1.65 1.11-2.566 1.132-.657 0-1.45-.187-2.37-.567-.926-.378-1.776-.565-2.553-.565-.815 0-1.69.187-2.624.565-.936.38-1.69.578-2.267.598-.877.037-1.752-.35-2.624-1.163-.557-.487-1.254-1.32-2.088-2.503-.896-1.263-1.632-2.726-2.21-4.395C31.31 34.02 31 32.274 31 30.584c0-1.936.417-3.606 1.254-5.005.657-1.125 1.53-2.01 2.625-2.662 1.094-.65 2.277-.982 3.55-1.004.697 0 1.61.216 2.745.64 1.132.426 1.86.642 2.178.642.238 0 1.046-.252 2.415-.755 1.294-.466 2.387-.66 3.282-.583 2.425.196 4.248 1.154 5.46 2.88-2.17 1.317-3.243 3.16-3.22 5.527.018 1.843.685 3.377 1.997 4.595.594.564 1.258 1 1.996 1.31-.16.467-.33.912-.51 1.34zm-5.56-21.932c0 1.444-.528 2.793-1.578 4.04-1.267 1.486-2.8 2.343-4.46 2.208-.022-.173-.034-.356-.034-.547 0-1.388.602-2.873 1.672-4.086.534-.614 1.214-1.125 2.038-1.533.822-.4 1.6-.622 2.33-.66.022.193.03.386.03.578z" fill-rule="evenodd"/></svg>
