<svg width="173" height="27" viewBox="80 94 173 27" xmlns="http://www.w3.org/2000/svg"><g fill="none" fill-rule="evenodd"><path d="M142.243 101.023c-1.758 2.03-3.357 3.9-5.062 5.774.907 1.197 1.813 2.393 2.665 3.59.906 1.196 1.76 2.393 2.77 3.693h-3.995c-.16 0-.374-.26-.48-.416l-4.476-5.93c-.16-.21-.32-.365-.587-.73v7.076h-3.623V94.26h3.57v12.07c.107.05.213.155.32.207.106-.208.16-.416.32-.572 1.278-1.51 2.61-3.017 3.943-4.526.16-.21.426-.417.64-.417 1.225-.052 2.504 0 3.996 0zm-49.56-1.405c-.8.624-1.6 1.197-2.45 1.873-.694-.83-1.44-1.716-2.612-1.872-.586-.104-1.225-.052-1.81.052-.694.104-1.12.572-1.227 1.3-.107.73.16 1.25.8 1.56 1.012.522 2.13.99 3.197 1.51.746.364 1.492.728 2.185 1.144 1.705 1.04 2.558 2.55 2.344 4.474-.214 1.977-1.28 3.382-3.145 4.214-3.623 1.56-8.1.104-9.965-3.277.8-.573 1.6-1.197 2.45-1.82.428.415.8.883 1.227 1.247 1.226 1.093 2.665 1.51 4.263 1.093.8-.208 1.333-.676 1.492-1.51.107-.83-.266-1.403-.96-1.82-.905-.468-1.917-.884-2.823-1.352-.907-.468-1.92-.936-2.72-1.51-3.143-2.236-2.61-6.397.8-7.958 3.304-1.56 7.195-.416 8.953 2.653zm63.95 9.104h-9.38c.16 2.705 3.943 3.38 7.407 1.3l1.44 2.34c-2.826 2.81-8.155 2.654-10.872-.26-2.665-2.756-2.345-7.282.586-9.83 3.783-3.226 9.7-1.613 10.764 3.017.267 1.143.054 2.235.054 3.432zm-3.518-2.497H147.2c.106-1.56 1.81-2.81 3.357-2.653 1.598.156 2.664 1.248 2.558 2.653zm-26.433-2.29c-.852.625-1.652 1.25-2.504 1.926-.853-1.196-1.92-1.976-3.464-1.872-.96.052-1.76.364-2.398 1.04-1.386 1.457-1.226 4.058.266 5.307 1.652 1.352 3.784.988 5.543-1.04.8.623 1.652 1.196 2.45 1.82-1.065 2.34-4.102 3.745-6.927 3.225-3.41-.624-5.81-3.12-6.022-6.242-.16-3.434 1.76-6.14 5.063-7.127 3.196-.884 6.34.26 7.992 2.966zm-22.168 7.18v3.017c-1.972.416-3.944.572-5.756-.416-1.332-.728-1.972-1.925-2.025-3.33-.106-1.768-.053-3.537-.053-5.358v-.988h-2.078v-2.965h2.078v-3.33h3.624v3.278h3.783v3.017h-3.677c0 1.977-.053 3.85 0 5.722 0 .833.586 1.3 1.386 1.353.852.052 1.758 0 2.718 0zm55.21-10.092h3.25c0 .416.053.832.053 1.404.266-.208.426-.364.64-.52 1.065-.832 2.237-1.144 3.57-1.04.373.052.64.104.64.572v2.756h-1.173c-2.132.052-3.304 1.197-3.358 3.277-.053 1.925 0 3.85 0 5.775v.832h-3.623v-13.057zM110.8 114.08h-3.57v-13.057h3.57v13.057zM109.042 94c1.28 0 2.346 1.04 2.293 2.237-.053 1.196-1.12 2.185-2.345 2.185-1.332 0-2.345-.99-2.345-2.185 0-1.25 1.066-2.237 2.398-2.237zm80.47 24.762h-3.624v-17.74h3.25v1.25c.107 0 .16.05.214.05 1.812-1.82 4.05-2.027 6.395-1.247 2.345.78 3.624 2.6 4.103 4.942.32 1.716.107 3.33-.64 4.89-1.758 3.537-6.5 4.578-9.645 2.03-.053 1.923-.053 3.796-.053 5.825zm-.107-11.34c0-2.133 1.386-3.59 3.464-3.538 1.918 0 3.41 1.56 3.41 3.59 0 2.08-1.44 3.59-3.464 3.59-2.025 0-3.41-1.458-3.41-3.643zm61.924 4.94c-3.785 3.28-9.86 2.342-11.938-1.82-1.44-2.81-.64-6.346 1.865-8.323 2.398-1.925 6.022-2.03 8.42-.26 1.972 1.508 2.824 4.265 2.025 6.762h-9.22c.214 2.237 3.838 3.797 7.408 1.3.426.73.906 1.51 1.44 2.34zm-2.985-6.24h-5.916c.266-1.614 1.758-2.758 3.41-2.602 1.492.104 2.558 1.196 2.505 2.6zm-30.75.52c.32-2.03-.905-3.434-3.463-2.758-.906.26-1.705.936-2.61 1.457-.534-.572-1.12-1.3-1.706-1.976 1.918-2.653 6.18-3.59 9.006-2.03 1.652.937 2.45 2.446 2.504 4.215.107 2.756 0 5.513 0 8.374h-3.357v-1.197c-1.387 1.197-2.932 1.613-4.69 1.51-2.718-.21-4.477-2.238-3.944-4.735.373-1.664 1.972-2.81 4.157-2.913 1.332 0 2.717.05 4.103.05zm.054 2.444c0 .936-.374 1.665-1.173 2.185-.853.52-1.812.625-2.77.21-.587-.26-.8-.78-.747-1.354.106-.572.48-.988 1.066-1.04 1.172-.052 2.344 0 3.623 0zm19.344-5.202c-.8.624-1.6 1.196-2.505 1.873-.854-1.197-1.973-1.977-3.57-1.873-.907.052-1.653.416-2.24 1.04-1.332 1.405-1.225 3.954.214 5.254 1.598 1.405 3.623 1.04 5.648-.988.8.624 1.652 1.25 2.452 1.82-1.546 2.654-4.583 3.85-7.674 3.018-3.25-.884-5.33-3.537-5.223-6.867.054-3.016 2.345-5.67 5.436-6.345 3.144-.677 6.128.572 7.46 3.07zm-30.536 10.092h-3.517V94.26h3.518v19.716z" fill="#000"/><path d="M171.646 116.497c.316 1.684 1.686 3.104 3.423 3.42 2.738.526 5.108-1.526 5.16-4.104l-4.107-4.473c-2.79-.157-5.003 2.316-4.477 5.157z" fill="#007AFF"/></g></svg>